Coordinates
version=1
nRows=26
nColumns=24
inDegrees=yes

Units are S.I. units (second, meters, Newtons, ...)
Angles are in degrees.

endheader
time	pelvis_tilt	pelvis_list	pelvis_rotation	pelvis_tx	pelvis_ty	pelvis_tz	hip_flexion_r	hip_adduction_r	hip_rotation_r	knee_angle_r	ankle_angle_r	subtalar_angle_r	mtp_angle_r	hip_flexion_l	hip_adduction_l	hip_rotation_l	knee_angle_l	ankle_angle_l	subtalar_angle_l	mtp_angle_l	lumbar_extension	lumbar_bending	lumbar_rotation
      0.55800000	     -1.22079971	      7.52396752	     -4.15165681	     -0.78308672	      0.97591554	      0.27544934	     26.51438674	     -6.43907469	      0.86790758	      1.73963656	     -2.44392116	     -4.80041358	     10.07468729	    -18.60472434	     11.98438807	      8.11014778	      3.01643762	     10.66988096	    -13.09067136	     -2.07407968	    -10.99595316	      0.30086825	     -8.62968710
      0.56216667	     -1.29417297	      7.39678469	     -4.14910763	     -0.77745511	      0.97502787	      0.27589267	     26.55728985	     -6.25838106	      1.20488015	      1.53629877	     -2.70263155	     -5.21833613	     10.07308532	    -18.66265085	     11.86077378	      8.04574358	      2.54427148	     10.99428747	    -12.95855654	     -2.04260254	    -10.91612298	      0.47152927	     -8.57474434
      0.56633333	     -1.36056902	      7.24362315	     -4.16091545	     -0.77177956	      0.97420249	      0.27637844	     26.59817623	     -6.04513417	      1.56108639	      1.24806040	     -2.98482662	     -5.68695479	     10.07046260	    -18.70961250	     11.71605456	      7.91376687	      2.03306494	     11.33551817	    -12.74614488	     -2.00102070	    -10.84286758	      0.67307429	     -8.50526656
      0.57050000	     -1.41945750	      7.07140202	     -4.17876343	     -0.76607759	      0.97344009	      0.27688471	     26.63700201	     -5.81098928	      1.92298946	      0.88309518	     -3.30092755	     -6.19263827	     10.06569960	    -18.74186031	     11.55638173	      7.72964001	      1.47364480	     11.68189968	    -12.49245461	     -1.94452014	    -10.78653572	      0.89544949	     -8.43104189
      0.57466667	     -1.49611186	      6.87915430	     -4.20125730	     -0.76032913	      0.97269759	      0.27741302	     26.71709318	     -5.54988777	      2.25910520	      0.41058293	     -3.65031518	     -6.73558750	     10.05709777	    -18.76045327	     11.37552951	      7.58157403	      0.91819925	     11.99771210	    -12.28764406	     -1.88862091	    -10.69114773	      1.14511670	     -8.34092932
      0.57883333	     -1.56921837	      6.67128737	     -4.22968953	     -0.75454854	      0.97201318	      0.27796341	     26.79561309	     -5.27042369	      2.60684870	     -0.11598701	     -4.04701570	     -7.32761763	     10.04309127	    -18.75817059	     11.18281239	      7.38214318	      0.31299571	     12.30571776	    -12.04723426	     -1.81973437	    -10.61017436	      1.41337621	     -8.24319810
      0.58300000	     -1.64960220	      6.45219608	     -4.26310865	     -0.74873610	      0.97136756	      0.27853498	     26.89711267	     -4.97477358	      2.92883080	     -0.71634760	     -4.46572985	     -7.92138058	     10.02358124	    -18.73183843	     10.98147543	      7.17327820	     -0.33383292	     12.59467748	    -11.82685745	     -1.74066718	    -10.51791853	      1.69505576	     -8.14055269
      0.58716667	     -1.72443659	      6.22033639	     -4.30853142	     -0.74290009	      0.97077340	      0.27914848	     27.00557414	     -4.65879259	      3.23728115	     -1.37757813	     -4.91712790	     -8.53162880	      9.99605725	    -18.69655175	     10.77060884	      6.95219397	     -1.00498808	     12.85398503	    -11.61289110	     -1.64722780	    -10.43751939	      1.98518326	     -8.02752476
      0.59133333	     -1.80536364	      5.96381348	     -4.35792933	     -0.73700908	      0.97021275	      0.27978657	     27.12591338	     -4.31453527	      3.52287883	     -2.08878863	     -5.36398285	     -9.12055309	      9.96431064	    -18.65479213	     10.53543192	      6.73185559	     -1.68621275	     13.07886567	    -11.43967539	     -1.55086503	    -10.35199809	      2.30561971	     -7.90646625
      0.59550000	     -1.87490114	      5.72625987	     -4.41315917	     -0.73111587	      0.96971000	      0.28043563	     27.25640870	     -3.98665918	      3.77469162	     -2.85662124	     -5.85142717	     -9.73117225	      9.92072163	    -18.58802747	     10.32516189	      6.48100755	     -2.43865284	     13.28931442	    -11.24265574	     -1.42817944	    -10.25546787	      2.61159881	     -7.77872440
      0.59966667	     -1.96090243	      5.46249220	     -4.47558670	     -0.72517337	      0.96922909	      0.28111737	     27.41364833	     -3.62646314	      4.00273073	     -3.67574668	     -6.29964077	    -10.27652680	      9.87479405	    -18.50601223	     10.08908988	      6.25964151	     -3.19092697	     13.43822810	    -11.11978254	     -1.30430677	    -10.16583336	      2.93861812	     -7.65028679
      0.60383333	     -2.02153548	      5.21185904	     -4.53894609	     -0.71922067	      0.96882613	      0.28181232	     27.54882514	     -3.28178407	      4.20642933	     -4.51261355	     -6.77613178	    -10.85650814	      9.80638344	    -18.41208564	      9.86928570	      5.98593073	     -4.02092165	     13.58402573	    -10.94766793	     -1.11685397	    -10.08308910	      3.25845704	     -7.50997816
      0.60800000	     -2.10485776	      4.95419999	     -4.61115465	     -0.71323631	      0.96842547	      0.28253042	     27.73336792	     -2.92311785	      4.36090631	     -5.41888763	     -7.18936675	    -11.33328613	      9.74280860	    -18.29557783	      9.64544367	      5.76877399	     -4.84952076	     13.65201870	    -10.89038061	     -0.94526881	     -9.97765564	      3.58905420	     -7.37449099
      0.61216667	     -2.16970621	      4.67002851	     -4.69156937	     -0.70720133	      0.96809849	      0.28325403	     27.89327121	     -2.54008661	      4.49036190	     -6.34376349	     -7.48767875	    -11.71575924	      9.69889521	    -18.19655554	      9.40153472	      5.58939473	     -5.68329320	     13.64861250	    -10.95078415	     -0.82945824	     -9.90575154	      3.96175784	     -7.25165692
      0.61633333	     -2.25281084	      4.43679998	     -4.76102302	     -0.70120600	      0.96778493	      0.28402300	     28.09392492	     -2.20404407	      4.60631615	     -7.29521626	     -7.91826006	    -12.21660383	      9.61247757	    -18.01859902	      9.20045195	      5.33803644	     -6.62904303	     13.64871298	    -10.83727887	     -0.58877449	     -9.80304681	      4.23325643	     -7.09408378
      0.62050000	     -2.29489805	      4.15185949	     -4.85423418	     -0.69513194	      0.96757107	      0.28478622	     28.23944689	     -1.81824788	      4.68439932	     -8.26073755	     -8.11431316	    -12.52920323	      9.56010768	    -17.89992314	      8.96379266	      5.14145698	     -7.54706780	     13.55495871	    -10.93813859	     -0.43533589	     -9.74505035	      4.61488404	     -6.97290770
      0.62466667	     -2.37649544	      3.92718282	     -4.92754868	     -0.68910015	      0.96734064	      0.28557909	     28.45173813	     -1.49212862	      4.73857152	     -9.26053681	     -8.39667460	    -12.90892293	      9.45090653	    -17.67242182	      8.77461412	      4.89776987	     -8.58730408	     13.45447528	    -10.88965143	     -0.09398954	     -9.63394197	      4.87888720	     -6.80500167
      0.62883333	     -2.40069758	      3.63327411	     -5.02279523	     -0.68297972	      0.96723445	      0.28638253	     28.57625704	     -1.09905300	      4.77659975	    -10.25133439	     -8.45131819	    -13.15348672	      9.39603140	    -17.53465137	      8.53131938	      4.71652283	     -9.58456655	     13.25095169	    -11.04868829	      0.08663595	     -9.60478099	      5.26595384	     -6.69971817
      0.63300000	     -2.43179483	      3.36860198	     -5.09447582	     -0.67689398	      0.96717776	      0.28723084	     28.70346114	     -0.73797891	      4.80591984	    -11.22950871	     -8.55742702	    -13.50044203	      7.98946840	    -17.31400028	      8.29411562	      4.41587712	    -10.70450215	     12.93815787	    -11.03633600	      5.03111479	     -9.56023624	      5.57703607	     -6.58090097
      0.63716667	     -2.45819766	      3.09866095	     -5.18949940	     -0.67076199	      0.96715460	      0.28804855	     28.83724372	     -0.37202309	      4.80349711	    -12.24724462	     -8.48127082	    -13.63165139	      7.98073564	    -17.11250811	      8.07654483	      4.24499266	    -11.80496953	     12.62110307	    -11.25805625	      5.05860769	     -9.52186745	      5.92787493	     -6.45071616
      0.64133333	     -2.48691815	      2.83743938	     -5.27126063	     -0.66463560	      0.96716984	      0.28888379	     28.96986883	     -0.01826758	      4.78537504	    -13.26633049	     -8.34407571	    -13.78556188	      7.96641825	    -16.86500288	      7.85832954	      4.04336554	    -12.98498808	     12.24650170	    -11.41744032	      5.12027471	     -9.47919840	      6.25265951	     -6.32212366
      0.64550000	     -2.53060867	      2.60959915	     -5.34059025	     -0.65853531	      0.96719583	      0.28972092	     29.12808948	      0.29635894	      4.73967117	    -14.30302526	     -8.13664337	    -13.85272011	      7.92707979	    -16.54470952	      7.66281769	      3.79885112	    -14.26115401	     11.84577764	    -11.49715053	      5.30775558	     -9.40487052	      6.51471781	     -6.17186583
      0.64966667	     -2.50738416	      2.31402673	     -5.42398444	     -0.65235750	      0.96738005	      0.29058367	     29.16001400	      0.67981420	      4.72326221	    -15.26429953	     -7.85006424	    -14.01489257	      7.90558247	    -16.30415293	      7.40659450	      3.56564934	    -15.52384205	     11.34358019	    -11.65659060	      5.42393249	     -9.41937110	      6.90026126	     -6.07592198
      0.65383333	     -2.52229425	      2.05670048	     -5.48508532	     -0.64623118	      0.96752726	      0.29145588	     29.25319482	      1.01826289	      4.66185024	    -16.26464242	     -7.46705073	    -14.02417499	      6.90055106	    -15.95291594	      7.16233786	      3.25909901	    -16.89581559	     10.73427163	    -11.73640793	     10.14986133	     -9.39149307	      7.19179847	     -5.96221881
      0.65800000	     -2.49322801	      1.76194730	     -5.55979445	     -0.64005853	      0.96780735	      0.29235601	     29.24653539	      1.39955703	      4.65229210	    -17.17452138	     -7.08098009	    -14.16418541	      6.89934461	    -15.64715713	      6.88871106	      2.98234458	    -18.26775740	     10.07071239	    -11.86459270	     10.17496355	     -9.41676991	      7.55050672	     -5.86468453
      0.66216667	     -2.50136726	      1.50714900	     -5.62164613	     -0.63392786	      0.96803575	      0.29324172	     29.29368141	      1.73470638	      4.60735331	    -18.10707058	     -6.59499492	    -14.14407557	      6.87960573	    -15.23110212	      6.63492330	      2.64006165	    -19.75753487	      9.40736633	    -11.88060671	     10.31313263	     -9.38027987	      7.84423264	     -5.74024325
